# xmcd
#
# Track frame offsets:
#       150
#       11901
#       23449
#
# Disc length: 529 seconds
#
# Revision: 1
# Processed by: cddbd v1.4PL0 Copyright (c) Steve Scherf et al.
# Submitted via: MusiCat 1.1
#
DISCID=16020f03
DTITLE=Lapdogs - Superheroes
DYEAR=2002
DGENRE=
TTITLE0=Superheroes
TTITLE1=Only In America
TTITLE2=Courtney
EXTD=2002\nIndie\n\n
EXTT0=
EXTT1=
EXTT2=
PLAYORDER=
